HIERARCHY
ROOT Hips
{
    OFFSET   0.000000   0.000000   0.000000
    CHANNELS 6 Xposition Yposition Zposition Zrotation Xrotation Yrotation
    JOINT Chest
    {
        OFFSET   0.000000   8.007230   0.000000
        CHANNELS 3 Zrotation Xrotation Yrotation
        JOINT Chest2
        {
            OFFSET   0.000000  22.077100   0.000000
            CHANNELS 3 Zrotation Xrotation Yrotation
            JOINT Neck
            {
                OFFSET   0.000000  23.254700   0.000000
                CHANNELS 3 Zrotation Xrotation Yrotation
                JOINT Head
                {
                    OFFSET   0.000010  14.370000   1.956610
                    CHANNELS 3 Zrotation Xrotation Yrotation
                    End Site
                    {
                        OFFSET   0.000000  19.566000   0.000000
                    }
                }
            }
            JOINT LeftCollar
            {
                OFFSET   3.911900  19.017000  -0.467063
                CHANNELS 3 Zrotation Xrotation Yrotation
                JOINT LeftShoulder
                {
                    OFFSET  10.383700   0.000000   0.000000
                    CHANNELS 3 Zrotation Xrotation Yrotation
                    JOINT LeftElbow
                    {
                        OFFSET  26.662100   0.001671   0.000522
                        CHANNELS 3 Zrotation Xrotation Yrotation
                        JOINT LeftWrist
                        {
                            OFFSET  28.869000   0.000037  -0.000114
                            CHANNELS 3 Zrotation Xrotation Yrotation
                            JOINT LeftFinger0
                            {
                                OFFSET   2.044650  -2.323450   3.252850
                                CHANNELS 3 Zrotation Xrotation Yrotation
                                JOINT LeftFinger01
                                {
                                    OFFSET   3.088140   0.000000   0.000000
                                    CHANNELS 3 Zrotation Xrotation Yrotation
                                    JOINT LeftFinger02
                                    {
                                        OFFSET   2.639460   0.000000   0.000000
                                        CHANNELS 3 Zrotation Xrotation Yrotation
                                        End Site
                                        {
                                            OFFSET   2.582190   0.000000   0.000000
                                        }
                                    }
                                }
                            }
                            JOINT LeftFinger1
                            {
                                OFFSET   8.364480   0.000000   3.252850
                                CHANNELS 3 Zrotation Xrotation Yrotation
                                JOINT LeftFinger11
                                {
                                    OFFSET   4.646930   0.000000   0.000000
                                    CHANNELS 3 Zrotation Xrotation Yrotation
                                    JOINT LeftFinger12
                                    {
                                        OFFSET   2.323470   0.000000   0.000000
                                        CHANNELS 3 Zrotation Xrotation Yrotation
                                        End Site
                                        {
                                            OFFSET   2.273050   0.000000   0.000000
                                        }
                                    }
                                }
                            }
                            JOINT LeftFinger2
                            {
                                OFFSET   8.364490   0.000016   1.078090
                                CHANNELS 3 Zrotation Xrotation Yrotation
                                JOINT LeftFinger21
                                {
                                    OFFSET   5.111620   0.000000   0.000000
                                    CHANNELS 3 Zrotation Xrotation Yrotation
                                    JOINT LeftFinger22
                                    {
                                        OFFSET   2.788150   0.000013   0.000000
                                        CHANNELS 3 Zrotation Xrotation Yrotation
                                        End Site
                                        {
                                            OFFSET   2.727660   0.000000   0.000000
                                        }
                                    }
                                }
                            }
                            JOINT LeftFinger3
                            {
                                OFFSET   7.899780   0.000016  -1.078090
                                CHANNELS 3 Zrotation Xrotation Yrotation
                                JOINT LeftFinger31
                                {
                                    OFFSET   4.646930   0.000000   0.000000
                                    CHANNELS 3 Zrotation Xrotation Yrotation
                                    JOINT LeftFinger32
                                    {
                                        OFFSET   2.323470   0.000000   0.000000
                                        CHANNELS 3 Zrotation Xrotation Yrotation
                                        End Site
                                        {
                                            OFFSET   2.273050   0.000000   0.000000
                                        }
                                    }
                                }
                            }
                            JOINT LeftFinger4
                            {
                                OFFSET   7.435080   0.000000  -3.252850
                                CHANNELS 3 Zrotation Xrotation Yrotation
                                JOINT LeftFinger41
                                {
                                    OFFSET   3.717550   0.000000   0.000000
                                    CHANNELS 3 Zrotation Xrotation Yrotation
                                    JOINT LeftFinger42
                                    {
                                        OFFSET   1.858760   0.000000   0.000000
                                        CHANNELS 3 Zrotation Xrotation Yrotation
                                        End Site
                                        {
                                            OFFSET   1.818440   0.000000   0.000000
                                        }
                                    }
                                }
                            }
                        }
                    }
                }
            }
            JOINT RightCollar
            {
                OFFSET  -3.911900  19.017000  -0.467064
                CHANNELS 3 Zrotation Xrotation Yrotation
                JOINT RightShoulder
                {
                    OFFSET -10.383700   0.000000   0.000000
                    CHANNELS 3 Zrotation Xrotation Yrotation
                    JOINT RightElbow
                    {
                        OFFSET -26.662100   0.001633   0.000260
                        CHANNELS 3 Zrotation Xrotation Yrotation
                        JOINT RightWrist
                        {
                            OFFSET -28.869000  -0.000045  -0.000080
                            CHANNELS 3 Zrotation Xrotation Yrotation
                            JOINT RightFinger0
                            {
                                OFFSET  -2.044660  -2.323490   3.252850
                                CHANNELS 3 Zrotation Xrotation Yrotation
                                JOINT RightFinger01
                                {
                                    OFFSET  -3.088140   0.000000   0.000000
                                    CHANNELS 3 Zrotation Xrotation Yrotation
                                    JOINT RightFinger02
                                    {
                                        OFFSET  -2.639450   0.000000   0.000000
                                        CHANNELS 3 Zrotation Xrotation Yrotation
                                        End Site
                                        {
                                            OFFSET  -2.582190   0.000000   0.000000
                                        }
                                    }
                                }
                            }
                            JOINT RightFinger1
                            {
                                OFFSET  -8.364480   0.000000   3.252850
                                CHANNELS 3 Zrotation Xrotation Yrotation
                                JOINT RightFinger11
                                {
                                    OFFSET  -4.646920   0.000000   0.000000
                                    CHANNELS 3 Zrotation Xrotation Yrotation
                                    JOINT RightFinger12
                                    {
                                        OFFSET  -2.323470   0.000000   0.000000
                                        CHANNELS 3 Zrotation Xrotation Yrotation
                                        End Site
                                        {
                                            OFFSET  -2.273050   0.000000   0.000000
                                        }
                                    }
                                }
                            }
                            JOINT RightFinger2
                            {
                                OFFSET  -8.364480   0.000000   1.078090
                                CHANNELS 3 Zrotation Xrotation Yrotation
                                JOINT RightFinger21
                                {
                                    OFFSET  -5.111610   0.000000   0.000000
                                    CHANNELS 3 Zrotation Xrotation Yrotation
                                    JOINT RightFinger22
                                    {
                                        OFFSET  -2.788160   0.000000   0.000000
                                        CHANNELS 3 Zrotation Xrotation Yrotation
                                        End Site
                                        {
                                            OFFSET  -2.727660   0.000000   0.000000
                                        }
                                    }
                                }
                            }
                            JOINT RightFinger3
                            {
                                OFFSET  -7.899780   0.000000  -1.078090
                                CHANNELS 3 Zrotation Xrotation Yrotation
                                JOINT RightFinger31
                                {
                                    OFFSET  -4.646930   0.000000   0.000000
                                    CHANNELS 3 Zrotation Xrotation Yrotation
                                    JOINT RightFinger32
                                    {
                                        OFFSET  -2.323470   0.000000   0.000000
                                        CHANNELS 3 Zrotation Xrotation Yrotation
                                        End Site
                                        {
                                            OFFSET  -2.273050   0.000000   0.000000
                                        }
                                    }
                                }
                            }
                            JOINT RightFinger4
                            {
                                OFFSET  -7.435090   0.000000  -3.252850
                                CHANNELS 3 Zrotation Xrotation Yrotation
                                JOINT RightFinger41
                                {
                                    OFFSET  -3.717550   0.000000   0.000000
                                    CHANNELS 3 Zrotation Xrotation Yrotation
                                    JOINT RightFinger42
                                    {
                                        OFFSET  -1.858760   0.000000   0.000000
                                        CHANNELS 3 Zrotation Xrotation Yrotation
                                        End Site
                                        {
                                            OFFSET  -1.818440   0.000000   0.000000
                                        }
                                    }
                                }
                            }
                        }
                    }
                }
            }
        }
    }
    JOINT LeftHip
    {
        OFFSET   9.782990   0.000000   0.000000
        CHANNELS 3 Zrotation Xrotation Yrotation
        JOINT LeftKnee
        {
            OFFSET  -0.000063 -41.789100   0.001657
            CHANNELS 3 Zrotation Xrotation Yrotation
            JOINT LeftAnkle
            {
                OFFSET   0.000078 -41.133200  -0.000113
                CHANNELS 3 Zrotation Xrotation Yrotation
                JOINT LeftToe
                {
                    OFFSET   0.000000  -6.358970  14.674500
                    CHANNELS 3 Zrotation Xrotation Yrotation
                    End Site
                    {
                        OFFSET   0.000000   0.000000   3.913200
                    }
                }
            }
        }
    }
    JOINT RightHip
    {
        OFFSET  -9.782990   0.000000   0.000000
        CHANNELS 3 Zrotation Xrotation Yrotation
        JOINT RightKnee
        {
            OFFSET   0.000053 -41.789200   0.000277
            CHANNELS 3 Zrotation Xrotation Yrotation
            JOINT RightAnkle
            {
                OFFSET   0.000030 -41.133200  -0.000150
                CHANNELS 3 Zrotation Xrotation Yrotation
                JOINT RightToe
                {
                    OFFSET   0.000000  -6.358960  14.674500
                    CHANNELS 3 Zrotation Xrotation Yrotation
                    End Site
                    {
                        OFFSET   0.000000   0.000000   3.913200
                    }
                }
            }
        }
    }
}
MOTION
Frames: 5
Frame Time:   0.016667
  6.458980  89.211700   1.468920   4.177360 -18.540200  19.621300  -3.190490   9.161450   9.426440  -8.023130  17.645300  19.721200   6.236360  -6.622870   0.721998  10.617400 -12.951600 -23.647500  -3.024500  -8.709240  -4.239430 -66.340800  27.492000 -11.706900   1.530500  -2.712510 -11.746800  11.529200  -4.330070   6.288700  42.107200  38.996400 -71.681900 -32.049700   0.000000   0.000063 -11.024800   0.002626  -0.000000 -31.023600   5.055010  -8.334850 -25.683100   0.004283   0.007239 -17.978300  -0.003069   0.006559 -28.359900  -1.690060   3.127380 -35.165400   0.001353   0.000843 -23.420100  -0.003499   0.000047 -27.924000  -1.666260   3.140110 -31.805100   0.000613  -0.000313 -21.182200   0.000809   0.003135 -29.197700  -1.735820   3.102270 -43.866100  -0.007719   0.000774 -29.214700  -0.005993  -0.000046   1.210100 -19.745600   5.719390   9.158060 -17.281900  88.343100 -13.287300   6.650310   2.372560  -5.315130   0.879331  -4.354670 -23.551400  50.485600  65.570900  77.912100   0.007820  -0.035876  45.229500  -0.000829  -0.002200   1.020580   0.461431  24.465000   0.917361  -0.002947   0.000314   0.642151  -0.001907  -0.000876  80.660100  -0.003697  -0.008253  80.660100  -0.001992  -0.002542  60.495100  -0.003476  -0.001355  88.996200  -4.994190  -0.087403  93.369500  -0.010931  -0.004409  70.027100  -0.006248   0.002509  88.984200 -10.003700  -0.178464 110.000000   0.000000   0.004118  80.000000  -0.000555   0.008120   0.622880  20.920300   3.768630  -0.556252  -0.024204  -6.662100  -5.212390  -1.182010 -10.749200   0.000000   0.000000  -0.000000   0.442407  21.061400  -1.370550  -1.295390   9.441260 -21.449400   3.833390  -9.623180  -5.722850   0.000000   0.000000  -0.000000
  6.554550  89.152100   1.473970   4.124250 -18.491100  19.521300  -3.123850   9.100840   9.353760  -7.864470  17.543000  19.554800   6.196180  -6.458090   0.699463  10.529500 -12.634900 -23.690200  -3.051310  -8.549730  -4.167630 -66.498200  27.286500 -11.595300   1.525850  -2.641140 -11.734900  11.501900  -4.334970   6.202310  42.170100  39.104400 -71.923800 -32.024100   0.000000   0.000066 -11.012000   0.002572  -0.000000 -31.066500   5.091210  -8.379750 -25.723200   0.004479   0.007327 -18.006200  -0.003068   0.006860 -28.369100  -1.651720   3.055290 -35.239200   0.001285   0.000875 -23.469300  -0.003503  -0.000000 -27.933800  -1.628450   3.067740 -31.852600   0.000597  -0.000296 -21.213800   0.000760   0.003106 -29.234800  -1.697730   3.030060 -43.919200  -0.007721   0.000771 -29.250100  -0.005991  -0.000093   1.083880 -19.435600   5.728090   9.221520 -17.281400  88.368500 -13.318600   6.881840   2.570040  -6.291130   1.090420  -4.263260 -23.499600  49.958400  65.425100  77.589900   0.008221  -0.036971  45.014900  -0.000791  -0.002442   1.438030   0.663293  24.937600   1.295430  -0.003221   0.000398   0.906790  -0.002256  -0.000872  80.749900  -0.003653  -0.008630  80.749900  -0.002067  -0.002914  60.562400  -0.003733  -0.001430  88.996200  -4.994070  -0.087550  93.212800  -0.011316  -0.004664  69.909600  -0.006579   0.002563  88.984200 -10.003600  -0.178478 110.000000   0.000000   0.004234  80.000000  -0.000547   0.008145   0.570040  20.908300   3.820310  -0.589496  -0.036037  -6.603460  -5.198110  -1.201120 -10.749900   0.000000   0.000000   0.000000   0.421507  20.869500  -1.252320  -1.341820   9.696350 -21.519400   3.844750  -9.640460  -5.682600   0.000000   0.000000   0.000000
  6.659160  89.152200   1.480860   4.054640 -18.458400  19.391700  -3.052090   9.027630   9.229980  -7.685310  17.420400  19.282300   6.165480  -6.269630   0.675847  10.461200 -12.271200 -23.604900  -3.052850  -8.341130  -3.942500 -66.659700  27.142400 -11.535800   1.528220  -2.644280 -11.690500  11.467600  -4.380690   6.092730  42.095600  39.003000 -71.763700 -32.039900   0.000000   0.000083 -11.019900   0.002519   0.000000 -31.051600   5.050670  -8.318640 -25.706600   0.004679   0.007411 -17.994600  -0.003063   0.007168 -28.363100  -1.672400   3.094400 -35.191200   0.001219   0.000904 -23.437300  -0.003515   0.000000 -27.922700  -1.648580   3.107140 -31.791600   0.000581  -0.000269 -21.173200   0.000712   0.003078 -29.208500  -1.717710   3.069510 -43.881200  -0.007719   0.000775 -29.224700  -0.005992  -0.000140   0.938466 -19.032300   5.790200   9.286170 -17.269600  88.321200 -13.452200   6.789710   2.953500  -7.028190   1.071560  -3.988170 -23.355000  48.779000  65.072200  76.904800   0.008572  -0.036832  44.558700  -0.000758  -0.002690   1.747500   0.810047  25.317600   1.576370  -0.006952   0.000490   1.103450  -0.003627  -0.000866  80.667900  -0.003605  -0.009008  80.667900  -0.002133  -0.003281  60.500900  -0.003978  -0.001508  88.996200  -4.993940  -0.087709  92.873000  -0.011678  -0.004919  69.654800  -0.006903   0.002612  88.984200 -10.003500  -0.178501 110.000000   0.000000   0.004338  80.000000  -0.000536   0.008160   0.519232  20.926700   3.875950  -0.611508  -0.062319  -6.509940  -5.167980  -1.234420 -10.758200   0.000000   0.000000   0.000000   0.394486  20.745500  -1.126290  -1.371780   9.868640 -21.569800   3.847690  -9.637230  -5.643520  -0.000000   0.000000   0.000000
  6.767190  89.153000   1.491010   3.964280 -18.428700  19.231800  -2.977190   8.943060   9.079960  -7.493940  17.277300  18.954800   6.148450  -6.068970   0.652202  10.408200 -11.881300 -23.494100  -3.038730  -8.095760  -3.672950 -66.823500  27.028100 -11.495300   1.533150  -2.663830 -11.633900  11.434900  -4.422860   5.979570  42.021900  38.901000 -71.604600 -32.055700   0.000000   0.000106 -11.027800   0.002466  -0.000000 -31.036600   5.010110  -8.257550 -25.689900   0.004878   0.007490 -17.983000  -0.003047   0.007480 -28.356200  -1.693090   3.133500 -35.143300   0.001153   0.000938 -23.405400  -0.003529  -0.000000 -27.911600  -1.668700   3.146540 -31.730600   0.000565  -0.000234 -21.132600   0.000660   0.003050 -29.175800  -1.737680   3.108960 -43.835100  -0.007717   0.000778 -29.194100  -0.005993  -0.000186   0.828210 -18.566400   5.830190   9.382080 -17.208000  88.128000 -13.805000   6.568770   3.596830  -7.620500   0.937477  -3.510480 -23.157900  47.347800  64.632400  76.107000   0.008874  -0.036310  44.027400  -0.000728  -0.002947   2.126590   1.000000  25.714500   1.922360  -0.012259   0.000580   1.345650  -0.005296  -0.000857  80.511100  -0.003546  -0.009370  80.511100  -0.002168  -0.003642  60.383300  -0.004212  -0.001591  88.996200  -4.993810  -0.087861  92.494700  -0.012018  -0.005169  69.371100  -0.007217   0.002659  88.984200 -10.003300  -0.178522 110.000000   0.000000   0.004440  80.000000  -0.000528   0.008170   0.478506  20.945000   3.934870  -0.630499  -0.080131  -6.401720  -5.130730  -1.272090 -10.765500   0.000000   0.000000  -0.000000   0.377021  20.649300  -1.003490  -1.406010   9.989560 -21.596700   3.844170  -9.616470  -5.602290  -0.000000   0.000000   0.000000
  6.879260  89.237600   1.508920   3.859490 -18.401400  19.039500  -2.905350   8.846220   8.922330  -7.305630  17.109600  18.611200   6.149540  -5.868180   0.630735  10.388400 -11.488500 -23.411500  -3.002390  -7.825450  -3.444860 -66.985800  26.938100 -11.441100   1.542110  -2.733060 -11.585500  11.408000  -4.390750   5.882610  42.077400  38.971600 -71.662100 -32.053200   0.000000   0.000121 -11.026600   0.002414   0.000000 -31.037300   5.014260  -8.264000 -25.691000   0.005075   0.007566 -17.983700  -0.003013   0.007795 -28.355600  -1.689460   3.126780 -35.143700   0.001082   0.000985 -23.405700  -0.003542  -0.000053 -27.912000  -1.665130   3.139780 -31.731900   0.000555  -0.000196 -21.133500   0.000596   0.003022 -29.168800  -1.733900   3.102310 -43.825700  -0.007715   0.000778 -29.188000  -0.005994  -0.000231   0.806677 -18.060100   5.812530   9.407880 -16.961600  87.768200 -14.407000   6.143830   4.624330  -7.987410   0.400610  -2.733870 -22.902200  45.990400  64.143900  75.353000   0.009123  -0.035160  43.525200  -0.000695  -0.003212   2.554180   1.237430  26.246200   2.317940  -0.016054   0.000665   1.622550  -0.006415  -0.000849  80.344600  -0.003475  -0.009701  80.344600  -0.002165  -0.004000  60.258400  -0.004432  -0.001681  88.991400  -4.993660  -0.088021  92.178800  -0.012338  -0.005411  69.134100  -0.007522   0.002703  88.984200 -10.003200  -0.178540 110.000000   0.000000   0.004546  80.000000  -0.000526   0.008179   0.454017  20.931400   3.991580  -0.655492  -0.076877  -6.284500  -5.098370  -1.300440 -10.751500  -0.000000   0.000000   0.000000   0.385901  20.580100  -0.900794  -1.467490  10.056200 -21.587100   3.833890  -9.568700  -5.560430   0.000000   0.000000   0.000000
